<svg width="20" height="19" viewBox="0 0 20 19" fill="none" xmlns="http://www.w3.org/2000/svg">
<path d="M7.84692 10.36C8.21403 10.848 8.68239 11.2518 9.22024 11.544C9.75809 11.8362 10.3528 12.0099 10.9642 12.0534C11.5755 12.097 12.1891 12.0093 12.7633 11.7963C13.3375 11.5833 13.859 11.25 14.2923 10.819L16.8568 8.26896C17.6353 7.4674 18.0661 6.39384 18.0564 5.27951C18.0467 4.16517 17.5971 3.09922 16.8047 2.31123C16.0122 1.52325 14.9402 1.07628 13.8196 1.0666C12.6989 1.05691 11.6193 1.48529 10.8132 2.25946L9.34286 3.71296" stroke="white" stroke-width="2" stroke-linecap="round" stroke-linejoin="round"/>
<path d="M11.266 8.65997C10.8989 8.17196 10.4306 7.76816 9.89271 7.47597C9.35486 7.18378 8.7601 7.01002 8.14878 6.96649C7.53746 6.92295 6.92388 7.01066 6.34964 7.22365C5.77541 7.43665 5.25396 7.76996 4.82066 8.20097L2.25619 10.751C1.47763 11.5525 1.04682 12.6261 1.05656 13.7404C1.0663 14.8548 1.5158 15.9207 2.30826 16.7087C3.10071 17.4967 4.17271 17.9437 5.29337 17.9533C6.41403 17.963 7.49368 17.5346 8.29979 16.7605L9.76153 15.307" stroke="white" stroke-width="2" stroke-linecap="round" stroke-linejoin="round"/>
</svg>
