<svg width="35" height="27" viewBox="0 0 35 27" fill="none" xmlns="http://www.w3.org/2000/svg">
<path fill-rule="evenodd" clip-rule="evenodd" d="M18.1034 4.82759L15.6897 0H2.41712C1.08218 0 0 1.07374 0 2.40312V24.1486C0 25.4758 1.08586 26.5517 2.40569 26.5517H32.5943C33.9229 26.5517 35 25.4744 35 24.1439V7.23545C35 5.90562 33.9173 4.82759 32.5791 4.82759H18.1034ZM17.331 6.03448L14.9655 1.2069H2.40382C1.74278 1.2069 1.2069 1.7564 1.2069 2.4039V24.1478C1.2069 24.8089 1.7453 25.3448 2.4053 25.3448H32.5947C33.2566 25.3448 33.7931 24.8082 33.7931 24.1369V7.24243C33.7931 6.5753 33.2454 6.03448 32.5826 6.03448H17.331Z" fill="#64FFDA"/>
</svg>
